<svg xmlns="http://www.w3.org/2000/svg" xmlns:xlink="http://www.w3.org/1999/xlink" id="Capa_1" x="0px" y="0px" viewBox="0 0 1080 1080" style="enable-background:new 0 0 1080 1080;" xml:space="preserve"><g>	<path d="M345.88,1080c-13.53-7.19-16.21-18.79-14.16-32.93c7.49-51.61,44.67-87.69,96.62-93.34c1.71-0.19,3.41-0.39,6.23-0.71  c0-11.33,0-22.49,0-33.65c0-10.83,0-21.66,0-33.82c-4.92,0-9.01,0-13.09,0c-84.73,0-169.46,0.12-254.2-0.05  c-53.36-0.1-95.3-31.73-107.25-80.82c-1.97-8.11-3-16.66-3.03-25.01c-0.25-60.46-0.09-120.93-0.2-181.39  c-0.02-10.47,3.36-18.61,13.45-22.82c14.4-6.02,28.61,4.55,28.73,21.69c0.21,30.93,0.06,61.87,0.07,92.8c0,2.79,0,5.57,0,9.16  c293.92,0,587.26,0,881.94,0c0-3.89,0-7.62,0-11.36c0-138.85,0.02-277.71-0.01-416.56c-0.01-43.25-25.59-69.06-68.6-69.07  c-122-0.05-244-0.02-366-0.02c-3.15,0-6.3,0-11.67,0c2.92,3.52,4.57,5.85,6.56,7.84c45.7,45.78,91.38,91.58,137.34,137.1  c2.4,2.38,7.29,3.49,10.88,3.24c54.97-3.85,99.04,15.73,131.1,60.83c14.26,20.07,20.97,43.06,20.74,67.43  c-0.2,22.09-2.39,44.17-4.06,66.23c-2,26.33,2.96,49.86,22.21,69.85c11.67,12.11,4.78,32.24-11.73,34.12  c-62.3,7.11-124.58,8.92-183-19.17c-44.14-21.22-80.09-51.79-93.48-101.22c-4.67-17.25-3.51-36.04-5.44-54.09  c-0.43-3.99-1.56-8.87-4.19-11.52c-84.09-84.45-168.45-168.63-252.58-253.04c-5.36-5.38-10.59-7.85-18.33-7.78  c-41.48,0.39-82.97,0.09-124.46,0.21c-40.92,0.12-67.14,26.45-67.2,67.35c-0.06,43.24,0,86.48-0.02,129.71  c-0.01,16.99-8.01,26.98-21.34,26.81c-13.07-0.16-20.82-9.84-20.83-26.25c-0.04-43.94-0.14-87.88,0.02-131.82  c0.23-62.24,45.46-107.5,107.89-107.97c30.21-0.22,60.43-0.04,94.17-0.04c-7.08-7.14-12.16-12.45-17.43-17.55  c-15.84-15.31-25.02-33.84-26.21-55.87c-2.13-39.25,23.53-74.04,61.5-84.02c2.66-0.7,5.26-1.65,7.89-2.49c8.44,0,16.88,0,25.32,0  c25.54,5.6,43.84,21.89,61.51,40c36.82,37.74,74.55,74.59,111.61,112.09c5.63,5.69,11.27,8.02,19.3,8.01  c137.46-0.23,274.92-0.32,412.37-0.09c63.15,0.11,108.27,45.42,108.32,108.47c0.13,169.42,0.1,338.84-0.1,508.27  c-0.01,9.74-1.02,19.74-3.4,29.16c-12.25,48.39-53.62,79.45-105.99,79.59c-85.08,0.22-170.15,0.06-255.23,0.06  c-4.05,0-8.1,0-12.18,0c0,23.55,0,45.51,0,67.55c2.76,0.28,4.85,0.47,6.94,0.72c50.42,5.88,87.19,41.27,95.02,91.37  c2.27,14.49,1.01,27.43-14.13,34.8C604.67,1080,475.27,1080,345.88,1080z M99.44,742.57c0,15.54-0.95,30.3,0.25,44.88  c1.35,16.35,9.31,30.01,21.93,40.71c13.88,11.77,30.26,15.28,48.06,15.27c246.74-0.1,493.49-0.07,740.23-0.07  c3.16,0,6.33,0.05,9.49-0.14c31.05-1.87,55.66-22.04,60.2-52.19c2.36-15.67,0.42-31.98,0.42-48.45  C686.69,742.57,393.65,742.57,99.44,742.57z M478.92,321.88c20.06-20.03,38.36-38.3,57.06-56.97c-1.42-1.54-3.46-3.89-5.66-6.09  c-48.21-48.23-96.43-96.46-144.66-144.67c-20.14-20.13-40.14-40.4-60.5-60.3c-11.18-10.93-24.7-14.48-39.82-9.71  c-15.08,4.75-24.27,15.34-27.29,30.64c-3.06,15.5,3.23,27.83,14.18,38.73c65.76,65.49,131.33,131.15,196.9,196.82  C472.84,314.04,475.94,318.34,478.92,321.88z M801.61,610.2c-2.34-19.24-5.82-37.44-6.42-55.75c-0.54-16.38,2.4-32.86,3.19-49.32  c0.56-11.59,0.11-23.24,0.11-37.41c-27.55,30.21-60.05,42.43-97.73,45.76c-28.97,2.56-50.05,19.68-63.86,45.75  C684.39,605.1,742.2,612.73,801.61,610.2z M378.02,1037.16c108.34,0,216.05,0,323.97,0c-7.2-23.27-29.76-41.09-54.75-41.27  c-71.37-0.51-142.74-0.5-214.11-0.01C408.24,996.05,386.25,1013.28,378.02,1037.16z M612.61,518.49  c26.18-31.34,59.04-46.1,98.65-49.02c26.65-1.97,47.23-16.45,62-38.97c3.33-5.08,2.96-8.27-1.67-12.38  c-25.76-22.92-55.5-30.85-88.98-23.52C628.19,406.51,593.45,467.22,612.61,518.49z M602.69,952.59c0-22.46,0-44.32,0-66.26  c-42.17,0-83.68,0-125.05,0c0,22.62,0,44.46,0,66.26C519.78,952.59,561.03,952.59,602.69,952.59z M577.37,416.76  c18.25-18.23,36.51-36.47,53.22-53.17c-21.09-21.44-42.76-43.46-63.06-64.09c-17.64,17.65-35.88,35.89-53.67,53.7  C534.56,373.93,556.08,395.46,577.37,416.76z"></path>	<path d="M78.12,478.92c11.22,0.11,20.66,9.47,20.84,20.67c0.19,11.61-9.58,21.46-21.2,21.36c-11.64-0.11-21.24-10.11-20.84-21.72  C57.31,488.03,66.93,478.81,78.12,478.92z"></path>	<path d="M540.84,771.75c11.6,0.34,20.49,9.67,20.23,21.25c-0.25,11.29-9.96,20.76-21.16,20.64c-11.61-0.13-21.44-10.54-20.85-22.09  C519.65,780.07,529.19,771.4,540.84,771.75z"></path></g></svg>